<?xml version="1.0" encoding="UTF-8"?>
<svg width="94px" height="94px" viewBox="0 0 94 94" version="1.1" xmlns="http://www.w3.org/2000/svg" xmlns:xlink="http://www.w3.org/1999/xlink">
    <title>1FDE0100-575B-4AC2-8623-49E392A6A020</title>
    <g id="Web" stroke="none" stroke-width="1" fill="none" fill-rule="evenodd">
        <g id="Invoice-01" transform="translate(-34.000000, -568.000000)">
            <g id="Group-2" transform="translate(31.000000, 568.000000)">
                <g id="flat-color-icons:signature" transform="translate(3.000000, 0.000000)">
                    <rect id="ViewBox" x="0" y="0" width="94" height="94"></rect>
                    <path d="M75.8952381,55.6689655 C81.1666667,48.9862069 88,39.7482759 88,23.8275862 C88,22.6482759 87.2190476,21.862069 86.047619,21.862069 C84.8761905,21.862069 84.0952381,22.6482759 84.0952381,23.8275862 C84.0952381,36.9965517 79.2142857,44.8586207 74.3333333,51.1482759 C73.1619048,47.4137931 72.3809524,42.8931034 72.3809524,37.5862069 C72.3809524,36.6034483 71.6,35.6206897 70.4285714,35.6206897 C69.452381,35.6206897 68.4761905,36.4068966 68.4761905,37.5862069 C68.2809524,40.9275862 67.3047619,44.662069 66.5238095,45.0551724 C65.7428571,45.0551724 64.7666667,42.3034483 64.5714286,39.5517241 C64.5714286,38.5689655 63.5952381,37.7827586 62.6190476,37.7827586 C61.6428571,37.7827586 60.6666667,38.3724138 60.6666667,39.5517241 C60.0809524,42.8931034 58.5190476,47.6103448 56.7619048,47.6103448 C55.9809524,47.6103448 55.5904762,47.4137931 55.3952381,47.0206897 C54.8095238,46.4310345 54.6142857,45.0551724 54.6142857,43.8758621 C54.6142857,43.0896552 54.8095238,42.3034483 54.8095238,41.5172414 C54.8095238,40.5344828 54.0285714,39.5517241 53.052381,39.5517241 C52.0761905,39.5517241 51.1,40.1413793 50.9047619,41.1241379 C50.9047619,41.3206897 50.7095238,42.1068966 50.7095238,43.2862069 C50.3190476,46.6275862 49.147619,53.3103448 45.047619,53.3103448 C43.6809524,53.3103448 42.9,52.9172414 42.3142857,51.9344828 C41.3380952,50.362069 41.3380952,47.8068966 42.3142857,45.4482759 L42.3142857,45.2517241 C42.5095238,45.0551724 42.5095238,44.662069 42.7047619,44.4655172 C44.2666667,41.3206897 46.0238095,39.5517241 48.952381,39.5517241 C50.1238095,39.5517241 50.9047619,38.7655172 50.9047619,37.5862069 C50.9047619,36.4068966 50.1238095,35.6206897 48.952381,35.6206897 C40.752381,35.6206897 38.4095238,43.6793103 36.0666667,51.3448276 C33.3333333,60.7793103 30.7952381,67.0689655 23.5714286,67.0689655 C13.6142857,67.0689655 9.9047619,54.0965517 9.9047619,45.4482759 C9.9047619,28.5448276 19.0809524,17.9310345 27.4761905,17.9310345 C33.1380952,17.9310345 35.2857143,22.4517241 35.4809524,22.6482759 C35.8714286,23.6310345 37.0428571,24.0241379 38.0190476,23.6310345 C38.9952381,23.237931 39.3857143,22.0586207 38.9952381,21.0758621 C38.8,20.6827586 35.6761905,14 27.4761905,14 C16.9333333,14 6,25.7931034 6,45.4482759 C6,65.6931034 17.5190476,71 23.5714286,71 C33.5285714,71 36.847619,62.1551724 39.3857143,54.2931034 C40.752381,56.062069 42.7047619,57.2413793 45.047619,57.2413793 C49.3428571,57.2413793 51.8809524,54.0965517 53.247619,50.1655172 C54.2238095,50.9517241 55.3952381,51.3448276 56.7619048,51.3448276 C59.4952381,51.3448276 61.447619,48.9862069 62.6190476,46.6275862 C63.4,48.0034483 64.7666667,48.9862069 66.5238095,48.9862069 C67.6952381,48.9862069 68.6714286,48.3965517 69.452381,47.6103448 C70.0380952,50.362069 70.8190476,52.9172414 71.4047619,55.0793103 C68.6714286,58.6172414 66.5238095,61.5655172 66.5238095,65.1034483 C66.5238095,68.4448276 69.0619048,71 72.3809524,71 C75.8952381,71 78.2380952,67.8551724 78.2380952,65.1034483 C78.2380952,62.5482759 77.2619048,59.7965517 76.0904762,56.6517241 C76.0904762,56.2586207 75.8952381,56.062069 75.8952381,55.6689655 Z M72.3809524,67.0689655 C71.0142857,67.0689655 70.4285714,66.0862069 70.4285714,65.1034483 C70.4285714,63.3344828 71.4047619,61.5655172 72.9666667,59.4034483 C73.747619,61.762069 74.3333333,63.5310345 74.3333333,65.1034483 C74.3333333,65.6931034 73.747619,67.0689655 72.3809524,67.0689655 Z" id="Shape" fill="#1565C0" fill-rule="nonzero"></path>
                    <polygon id="Path" fill="#90A4AE" fill-rule="nonzero" points="6 78 88 78 88 82 6 82"></polygon>
                </g>
            </g>
        </g>
    </g>
</svg>